<svg xmlns="http://www.w3.org/2000/svg" version="1.0" width="335.000000pt" height="86.000000pt" viewBox="0 0 335.000000 86.000000" preserveAspectRatio="xMidYMid meet">

<g transform="translate(0.000000,86.000000) scale(0.100000,-0.100000)" fill="#e62a2a" stroke="none">
<path d="M1210 743 c-59 -30 -65 -55 -65 -260 0 -204 5 -220 76 -255 42 -21 126 -12 167 19 42 31 51 73 51 243 0 171 -9 212 -51 243 -39 29 -131 34 -178 10z m120 -82 c5 -11 10 -86 10 -171 0 -85 -5 -160 -10 -171 -7 -12 -21 -19 -41 -19 -42 0 -49 27 -49 190 0 163 7 190 49 190 20 0 34 -7 41 -19z" fill="#e62a2a"/>
<path d="M100 440 c0 -171 1 -310 3 -310 1 0 56 7 122 15 65 8 123 15 127 15 4 0 8 21 8 46 l0 46 -80 -7 -80 -7 0 85 0 85 65 7 65 7 0 45 0 45 -65 -7 -65 -7 0 81 0 81 80 0 80 0 0 45 0 45 -130 0 -130 0 0 -310z" fill="#e62a2a"/>
<path d="M420 460 l0 -291 43 3 42 3 3 195 4 195 37 -130 c21 -72 46 -156 55 -188 l17 -57 49 0 50 0 0 280 0 280 -45 0 -44 0 -3 -147 -3 -148 -41 145 -41 145 -61 3 -62 3 0 -291z" fill="#e62a2a"/>
<path d="M780 475 l0 -275 45 0 45 0 0 192 c0 105 3 189 6 186 3 -3 29 -86 58 -184 57 -193 57 -192 122 -179 l34 6 0 264 0 265 -45 0 -45 0 -1 -147 -1 -148 -23 75 c-13 41 -33 108 -45 148 l-22 72 -64 0 -64 0 0 -275z" fill="#e62a2a"/>
<path d="M1470 743 c0 -5 20 -120 45 -257 25 -137 45 -250 45 -252 0 -2 33 -4 73 -4 l73 0 42 243 c24 133 46 250 49 260 4 16 -1 18 -43 15 l-48 -3 -28 -165 c-15 -91 -30 -181 -34 -200 -7 -36 -10 -21 -64 303 l-12 67 -49 0 c-27 0 -49 -3 -49 -7z" fill="#e62a2a"/>
<path d="M1885 738 c-2 -7 -22 -116 -45 -243 -23 -126 -44 -238 -46 -248 -5 -16 0 -18 43 -15 39 2 48 7 51 23 10 66 9 65 66 65 57 0 66 -8 66 -54 0 -33 19 -46 67 -46 40 0 43 2 38 22 -3 13 -23 124 -46 248 -22 124 -42 233 -45 243 -4 14 -17 17 -75 17 -47 0 -71 -4 -74 -12z m94 -230 l18 -108 -44 0 c-37 0 -44 3 -39 18 2 9 12 64 22 122 10 58 20 98 21 90 2 -8 12 -63 22 -122z" fill="#e62a2a"/>
<path d="M2170 485 l0 -265 50 0 50 0 0 110 0 110 60 0 60 0 0 40 0 40 -60 0 -60 0 0 75 0 75 75 0 75 0 0 40 0 40 -125 0 -125 0 0 -265z" fill="#e62a2a"/>
<path d="M2460 481 c0 -149 3 -272 8 -274 4 -3 62 -8 130 -12 l122 -7 0 40 c0 48 -8 52 -96 52 l-64 0 0 235 0 235 -50 0 -50 0 0 -269z" fill="#e62a2a"/>
<path d="M2752 468 l3 -283 48 -3 47 -3 0 285 0 286 -50 0 -50 0 2 -282z" fill="#e62a2a"/>
<path d="M2952 610 l50 -140 -52 -146 c-28 -80 -50 -147 -48 -149 2 -1 22 -6 45 -10 l41 -6 38 116 39 116 12 -38 c6 -21 24 -77 38 -124 l27 -87 46 -5 c26 -3 49 -3 51 -1 2 2 -19 77 -48 166 l-53 163 51 143 50 142 -47 0 -48 0 -35 -106 -34 -106 -35 106 -34 106 -52 0 -51 0 49 -140z" fill="#e62a2a"/>
</g>
</svg>